<?xml version="1.0" encoding="utf-8"?>
<svg version="1.1" xmlns:xlink="http://www.w3.org/1999/xlink" width="6px" height="12px" xmlns="http://www.w3.org/2000/svg">
  <g transform="matrix(1 0 0 1 -273 -328 )">
    <path d="M 5.86996052848338 5.69344585305186  L 0.728211427398548 0.175471207985083  C 0.564981290829166 0.000297402886303644  0.320136108291706 0.000297402886303644  0.156905971722324 0.175471207985083  C -0.006324164847058 0.35064501308392  -0.006324164847058 0.613405696782593  0.156905971722324 0.788579501881372  L 5.01300234496921 6  L 0.156905971722324 11.2114204981186  C -0.006324164847058 11.3865943032174  -0.006324164847058 11.6493549869161  0.156905971722324 11.8245287920149  C 0.238521040007015 11.9121156945643  0.360943631275745 11.9559091338642  0.442558699560436 11.9559091338642  C 0.524173767844957 11.9559091338642  0.646596359113857 11.9121156945643  0.728211427398548 11.8245287920149  L 5.86996052848338 6.30655414694814  C 6.03319066505276 6.13138034184936  6.03319066505276 5.86861965815064  5.86996052848338 5.69344585305186  Z " fill-rule="nonzero" fill="#ffffff" stroke="none" transform="matrix(1 0 0 1 273 328 )" />
  </g>
</svg>