<?xml version="1.0" encoding="utf-8"?>
<svg version="1.1" xmlns:xlink="http://www.w3.org/1999/xlink" width="17px" height="17px" xmlns="http://www.w3.org/2000/svg">
  <g transform="matrix(1 0 0 1 -3769 -1183 )">
    <path d="M 3777.5 1183  C 3782.26 1183  3786 1186.74  3786 1191.5  C 3786 1196.26  3782.26 1200  3777.5 1200  C 3772.74 1200  3769 1196.26  3769 1191.5  C 3769 1186.74  3772.74 1183  3777.5 1183  Z " fill-rule="nonzero" fill="#ffffff" stroke="none" />
    <path d="M 3777.5 1183.5  C 3781.98 1183.5  3785.5 1187.02  3785.5 1191.5  C 3785.5 1195.98  3781.98 1199.5  3777.5 1199.5  C 3773.02 1199.5  3769.5 1195.98  3769.5 1191.5  C 3769.5 1187.02  3773.02 1183.5  3777.5 1183.5  Z " stroke-width="1" stroke="#797979" fill="none" />
  </g>
</svg>