<?xml version="1.0" encoding="utf-8"?>
<svg version="1.1" xmlns:xlink="http://www.w3.org/1999/xlink" width="9px" height="5px" xmlns="http://www.w3.org/2000/svg">
  <g transform="matrix(1 0 0 1 -455 -501 )">
    <path d="M 0.624644043391982 0.114238066185067  C 0.481848720142352 -0.0360329168293561  0.251426573217486 -0.0371857526357076  0.107760664794114 0.114001127489246  C -0.0349104408769563 0.264141204607597  -0.0356257656731032 0.506813700702878  0.106055291298617 0.655911709293264  L 3.98396549563267 4.73683239457245  C 4.26860736787876 5.03637535630611  4.72994559148628 5.03654094103865  5.01474492256966 4.73683239457245  L 8.89265512690372 0.655911709293264  C 9.03438440619448 0.506762841663431  9.03461566183114 0.265187968566977  8.89094975340777 0.114001127489246  C 8.74827864773624 -0.0361390081999389  8.51775968512447 -0.0369775039047227  8.3740663748099 0.114238066185067  L 4.75790960189624 3.91970226962127  C 4.61511391687509 4.06997325751661  4.38449412662021 4.0709178689965  4.24080081630564 3.91970226962127  L 0.624644043391982 0.114238066185067  Z " fill-rule="nonzero" fill="#333333" stroke="none" transform="matrix(1 0 0 1 455 501 )" />
  </g>
</svg>