<?xml version="1.0" encoding="utf-8"?>
<svg version="1.1" xmlns:xlink="http://www.w3.org/1999/xlink" width="5px" height="8px" xmlns="http://www.w3.org/2000/svg">
  <g transform="matrix(1 0 0 1 -1487 -1556 )">
    <path d="M 4.89163377373615 3.7956305687012  L 0.606842856165486 0.116980805323465  C 0.470817742357667 0.000198268590793305  0.26678009024306 0.000198268590793305  0.130754976435242 0.116980805323465  C -0.00527013737257676 0.233763342055909  -0.00527013737257676 0.408937131188395  0.130754976435242 0.525719667920839  L 4.17750195414101 4  L 0.130754976435242 7.47428033207916  C -0.00527013737257676 7.5910628688116  -0.00527013737257676 7.76623665794409  0.130754976435242 7.88301919467654  C 0.198767533339151 7.94141046304276  0.300786359396454 7.97060608924289  0.368798916300364 7.97060608924289  C 0.436811473204102 7.97060608924289  0.538830299261576 7.94141046304276  0.606842856165486 7.88301919467654  L 4.89163377373615 4.2043694312988  C 5.02765888754396 4.08758689456636  5.02765888754396 3.91241310543364  4.89163377373615 3.7956305687012  Z " fill-rule="nonzero" fill="#666666" stroke="none" transform="matrix(1 0 0 1 1487 1556 )" />
  </g>
</svg>