<?xml version="1.0" encoding="utf-8"?>
<svg version="1.1" xmlns:xlink="http://www.w3.org/1999/xlink" width="25px" height="25px" xmlns="http://www.w3.org/2000/svg">
  <g transform="matrix(1 0 0 1 -1620 -765 )">
    <path d="M 24.7514204545455 16.6947798295455  C 25.1065340909091 16.0511363636364  24.951171875 15.2743252840909  24.3741122159091 14.8304332386364  L 22.265625 13.232421875  C 22.2878196022727 13.0104758522727  22.3100142045455 12.7663352272727  22.3100142045455 12.5  C 22.3100142045455 12.2336647727273  22.2878196022727 11.9895241477273  22.265625 11.767578125  L 24.3741122159091 10.1695667613636  C 24.951171875 9.72567471590909  25.1065340909091 8.94886363636364  24.7292258522727 8.28302556818182  L 22.3765980113636 4.31019176136364  C 22.1102627840909 3.84410511363636  21.5997869318182 3.55557528409091  21.0671164772727 3.55557528409091  C 20.8895596590909 3.55557528409091  20.7341974431818 3.57776988636364  20.556640625 3.64435369318182  L 18.0486505681818 4.62091619318182  C 17.626953125 4.33238636363636  17.1830610795455 4.08824573863636  16.7391690340909 3.88849431818182  L 16.3618607954545 1.33611505681818  C 16.2508877840909 0.603693181818181  15.6294389204545 0.071022727272727  14.8748224431818 0.071022727272727  L 10.1251775568182 0.071022727272727  C 9.37056107954546 0.071022727272727  8.74911221590909 0.603693181818181  8.63813920454545 1.31392045454545  L 8.28302556818182 3.88849431818182  C 7.83913352272727 4.08824573863636  7.41743607954545 4.33238636363636  6.97354403409091 4.62091619318182  L 4.46555397727273 3.64435369318182  C 4.28799715909091 3.57776988636364  4.11044034090909 3.55557528409091  3.93288352272727 3.55557528409091  C 3.40021306818182 3.55557528409091  2.88973721590909 3.82191051136364  2.64559659090909 4.28799715909091  L 0.270774147727273 8.28302556818182  C -0.106534090909091 8.90447443181818  0.048828125 9.72567471590909  0.625887784090909 10.1695667613636  L 2.734375 11.767578125  C 2.71218039772727 12.0339133522727  2.68998579545455 12.2780539772727  2.68998579545455 12.5  C 2.68998579545455 12.7219460227273  2.68998579545455 12.9660866477273  2.734375 13.232421875  L 0.625887784090909 14.8304332386364  C 0.048828125 15.2743252840909  -0.106534090909091 16.0511363636364  0.270774147727273 16.7169744318182  L 2.62340198863636 20.6898082386364  C 2.88973721590909 21.1558948863636  3.40021306818182 21.4444247159091  3.93288352272727 21.4444247159091  C 4.11044034090909 21.4444247159091  4.26580255681818 21.4222301136364  4.443359375 21.3556463068182  L 6.95134943181818 20.3790838068182  C 7.373046875 20.6676136363636  7.81693892045455 20.9117542613636  8.26083096590909 21.1115056818182  L 8.63813920454546 23.6638849431818  C 8.72691761363636 24.3741122159091  9.37056107954546 24.9289772727273  10.1251775568182 24.9289772727273  L 14.8748224431818 24.9289772727273  C 15.6294389204545 24.9289772727273  16.2508877840909 24.3963068181818  16.3618607954545 23.6860795454545  L 16.7391690340909 21.1115056818182  C 17.1830610795455 20.9117542613636  17.6047585227273 20.6676136363636  18.0486505681818 20.3790838068182  L 20.556640625 21.3556463068182  C 20.7341974431818 21.4222301136364  20.9117542613636 21.4444247159091  21.0893110795455 21.4444247159091  C 21.6219815340909 21.4444247159091  22.1324573863636 21.1780894886364  22.3765980113636 20.7120028409091  L 24.7514204545455 16.6947798295455  Z M 12.5 7.17329545454545  C 15.4296875 7.17329545454545  17.8267045454545 9.5703125  17.8267045454545 12.5  C 17.8267045454545 15.4296875  15.4296875 17.8267045454545  12.5 17.8267045454545  C 9.5703125 17.8267045454545  7.17329545454545 15.4296875  7.17329545454545 12.5  C 7.17329545454545 9.5703125  9.5703125 7.17329545454545  12.5 7.17329545454545  Z " fill-rule="nonzero" fill="#000000" stroke="none" transform="matrix(1 0 0 1 1620 765 )" />
  </g>
</svg>